<mxfile host="65bd71144e">
    <diagram id="EvXFjRSstQy3UN75BdbI" name="Página-1">
        <mxGraphModel dx="542" dy="430" grid="1" gridSize="10" guides="1" tooltips="1" connect="1" arrows="1" fold="1" page="1" pageScale="1" pageWidth="827" pageHeight="1169" math="0" shadow="0">
            <root>
                <mxCell id="0"/>
                <mxCell id="1" parent="0"/>
                <mxCell id="48" value="" style="edgeStyle=none;html=1;fontColor=#000000;strokeColor=#000000;" parent="1" source="46" target="47" edge="1">
                    <mxGeometry relative="1" as="geometry"/>
                </mxCell>
                <mxCell id="46" value="INICIO" style="ellipse;whiteSpace=wrap;html=1;fontColor=#000000;strokeColor=#000000;fillColor=#FF9999;" parent="1" vertex="1">
                    <mxGeometry x="320" y="120" width="80" height="40" as="geometry"/>
                </mxCell>
                <mxCell id="50" value="" style="edgeStyle=none;html=1;fontColor=#000000;strokeColor=#000000;" parent="1" source="47" target="49" edge="1">
                    <mxGeometry relative="1" as="geometry"/>
                </mxCell>
                <mxCell id="47" value="num" style="shape=parallelogram;perimeter=parallelogramPerimeter;whiteSpace=wrap;html=1;fixedSize=1;fillColor=#FFFF99;strokeColor=#000000;fontColor=#000000;" parent="1" vertex="1">
                    <mxGeometry x="320" y="200" width="80" height="40" as="geometry"/>
                </mxCell>
                <mxCell id="52" value="" style="edgeStyle=orthogonalEdgeStyle;html=1;fontSize=11;fontColor=#000000;strokeColor=#000000;entryX=0.5;entryY=0;entryDx=0;entryDy=0;exitX=0;exitY=0.5;exitDx=0;exitDy=0;" parent="1" source="49" target="51" edge="1">
                    <mxGeometry relative="1" as="geometry"/>
                </mxCell>
                <mxCell id="49" value="&lt;p style=&quot;line-height: 1.4&quot;&gt;&lt;/p&gt;&lt;div style=&quot;font-size: 11px&quot;&gt;&lt;font style=&quot;font-size: 11px&quot;&gt;num &amp;gt; 9999&lt;/font&gt;&lt;/div&gt;&lt;div style=&quot;font-size: 11px&quot;&gt;&lt;span&gt;&lt;font style=&quot;font-size: 11px&quot;&gt;and&lt;/font&gt;&lt;/span&gt;&lt;/div&gt;&lt;div style=&quot;font-size: 11px&quot;&gt;&lt;font style=&quot;font-size: 11px&quot;&gt;num ≤ 99999&lt;/font&gt;&lt;/div&gt;&lt;p&gt;&lt;/p&gt;" style="rhombus;whiteSpace=wrap;html=1;fillColor=#CC99FF;strokeColor=#000000;fontColor=#000000;align=center;direction=west;spacing=2;verticalAlign=middle;" parent="1" vertex="1">
                    <mxGeometry x="310" y="280" width="100" height="80" as="geometry"/>
                </mxCell>
                <mxCell id="54" value="" style="edgeStyle=orthogonalEdgeStyle;html=1;fontSize=11;fontColor=#000000;strokeColor=#000000;" parent="1" source="51" target="53" edge="1">
                    <mxGeometry relative="1" as="geometry"/>
                </mxCell>
                <mxCell id="51" value="&lt;p style=&quot;line-height: 1.2&quot;&gt;&lt;/p&gt;&lt;div style=&quot;line-height: 1.2&quot;&gt;dig1 = (num%100000) // 10000&lt;/div&gt;&lt;div&gt;dig2 = (num%10000) // 1000&lt;/div&gt;&lt;div&gt;dig4 = (num%100) // 10&lt;/div&gt;&lt;div&gt;dig5 = num%10&lt;/div&gt;&lt;p&gt;&lt;/p&gt;" style="whiteSpace=wrap;html=1;fillColor=#9999FF;strokeColor=#000000;fontColor=#000000;align=center;" parent="1" vertex="1">
                    <mxGeometry x="410" y="360" width="180" height="80" as="geometry"/>
                </mxCell>
                <mxCell id="56" value="" style="edgeStyle=orthogonalEdgeStyle;html=1;fontSize=11;fontColor=#000000;strokeColor=#000000;entryX=0.5;entryY=0;entryDx=0;entryDy=0;exitX=1;exitY=0.5;exitDx=0;exitDy=0;" parent="1" source="53" target="55" edge="1">
                    <mxGeometry relative="1" as="geometry"/>
                </mxCell>
                <mxCell id="58" style="edgeStyle=orthogonalEdgeStyle;html=1;exitX=0;exitY=0.5;exitDx=0;exitDy=0;entryX=0.5;entryY=0;entryDx=0;entryDy=0;fontSize=11;fontColor=#000000;strokeColor=#000000;" parent="1" source="53" target="57" edge="1">
                    <mxGeometry relative="1" as="geometry"/>
                </mxCell>
                <mxCell id="53" value="&lt;font style=&quot;font-size: 11px&quot;&gt;dig1 = dig5&lt;br&gt;and&lt;br&gt;dig2 = dig4&lt;/font&gt;" style="rhombus;whiteSpace=wrap;html=1;fillColor=#CC99FF;strokeColor=#000000;fontColor=#000000;" parent="1" vertex="1">
                    <mxGeometry x="450" y="480" width="100" height="80" as="geometry"/>
                </mxCell>
                <mxCell id="55" value="&quot;Es capicúa.&quot;" style="shape=document;whiteSpace=wrap;html=1;boundedLbl=1;fillColor=#FFFF99;strokeColor=#000000;fontColor=#000000;" parent="1" vertex="1">
                    <mxGeometry x="550" y="560" width="100" height="60" as="geometry"/>
                </mxCell>
                <mxCell id="57" value="&quot;No es capicúa.&quot;" style="shape=document;whiteSpace=wrap;html=1;boundedLbl=1;fillColor=#FFFF99;strokeColor=#000000;fontColor=#000000;" parent="1" vertex="1">
                    <mxGeometry x="350" y="560" width="100" height="60" as="geometry"/>
                </mxCell>
                <mxCell id="59" style="edgeStyle=orthogonalEdgeStyle;html=1;exitX=1;exitY=0.5;exitDx=0;exitDy=0;entryX=0.5;entryY=0;entryDx=0;entryDy=0;fontSize=11;fontColor=#000000;strokeColor=#000000;" parent="1" source="49" target="60" edge="1">
                    <mxGeometry relative="1" as="geometry">
                        <mxPoint x="300" y="300" as="sourcePoint"/>
                    </mxGeometry>
                </mxCell>
                <mxCell id="60" value="&quot;Entrada inválida.&quot;" style="shape=document;whiteSpace=wrap;html=1;boundedLbl=1;fillColor=#FFFF99;strokeColor=#000000;fontColor=#000000;" parent="1" vertex="1">
                    <mxGeometry x="200" y="440" width="120" height="60" as="geometry"/>
                </mxCell>
                <mxCell id="61" value="" style="endArrow=none;html=1;fontSize=11;fontColor=#000000;strokeColor=#000000;" parent="1" edge="1" target="55">
                    <mxGeometry width="50" height="50" relative="1" as="geometry">
                        <mxPoint x="400" y="620" as="sourcePoint"/>
                        <mxPoint x="640" y="620" as="targetPoint"/>
                        <Array as="points">
                            <mxPoint x="400" y="660"/>
                            <mxPoint x="600" y="660"/>
                        </Array>
                    </mxGeometry>
                </mxCell>
                <mxCell id="62" value="" style="endArrow=none;html=1;fontSize=11;fontColor=#000000;strokeColor=#000000;" parent="1" source="60" edge="1">
                    <mxGeometry width="50" height="50" relative="1" as="geometry">
                        <mxPoint x="240" y="520" as="sourcePoint"/>
                        <mxPoint x="500" y="660" as="targetPoint"/>
                        <Array as="points">
                            <mxPoint x="260" y="700"/>
                            <mxPoint x="500" y="700"/>
                        </Array>
                    </mxGeometry>
                </mxCell>
                <mxCell id="63" value="FIN" style="ellipse;whiteSpace=wrap;html=1;fontSize=11;fontColor=#000000;strokeColor=#000000;fillColor=#FF9999;" parent="1" vertex="1">
                    <mxGeometry x="320" y="740" width="80" height="40" as="geometry"/>
                </mxCell>
                <mxCell id="64" value="" style="endArrow=classic;html=1;fontSize=11;fontColor=#000000;strokeColor=#000000;entryX=0.5;entryY=0;entryDx=0;entryDy=0;" parent="1" target="63" edge="1">
                    <mxGeometry width="50" height="50" relative="1" as="geometry">
                        <mxPoint x="360" y="700" as="sourcePoint"/>
                        <mxPoint x="430" y="690" as="targetPoint"/>
                    </mxGeometry>
                </mxCell>
            </root>
        </mxGraphModel>
    </diagram>
</mxfile>